<svg width="18" height="12" viewBox="0 0 18 12" fill="none" xmlns="http://www.w3.org/2000/svg"><path d="M6.84375 2.0625H16.0938C16.3646 2.0625 16.5938 1.96875 16.7812 1.78125C16.974 1.58854 17.0703 1.35677 17.0703 1.08594C17.0703 0.815104 16.9766 0.585938 16.7891 0.398438C16.6016 0.205729 16.3698 0.109375 16.0938 0.109375H6.84375C6.57292 0.109375 6.34115 0.203125 6.14844 0.390625C5.96094 0.578125 5.86719 0.809896 5.86719 1.08594C5.86719 1.35677 5.96094 1.58854 6.14844 1.78125C6.33594 1.96875 6.56771 2.0625 6.84375 2.0625ZM6.84375 6.78125H16.0938C16.3646 6.78125 16.5938 6.6875 16.7812 6.5C16.974 6.3125 17.0703 6.08073 17.0703 5.80469C17.0703 5.53385 16.9766 5.30469 16.7891 5.11719C16.6016 4.92448 16.3698 4.82812 16.0938 4.82812H6.84375C6.57292 4.82812 6.34115 4.92188 6.14844 5.10938C5.96094 5.29688 5.86719 5.52865 5.86719 5.80469C5.86719 6.07552 5.96094 6.30729 6.14844 6.5C6.33594 6.6875 6.56771 6.78125 6.84375 6.78125ZM6.84375 11.5H16.0938C16.3646 11.5 16.5938 11.4062 16.7812 11.2188C16.974 11.0312 17.0703 10.7995 17.0703 10.5234C17.0703 10.2526 16.9766 10.0234 16.7891 9.83594C16.6016 9.64323 16.3698 9.54688 16.0938 9.54688H6.84375C6.57292 9.54688 6.34115 9.64323 6.14844 9.83594C5.96094 10.0234 5.86719 10.2526 5.86719 10.5234C5.86719 10.7943 5.96094 11.0234 6.14844 11.2109C6.33594 11.4036 6.56771 11.5 6.84375 11.5ZM2.00781 2.17188H3.27344C3.57552 2.17188 3.83333 2.0651 4.04688 1.85156C4.26042 1.63802 4.36719 1.38281 4.36719 1.08594C4.36719 0.783854 4.26042 0.528646 4.04688 0.320312C3.83333 0.106771 3.57552 0 3.27344 0H2.00781C1.71094 0 1.45573 0.106771 1.24219 0.320312C1.02865 0.528646 0.921875 0.783854 0.921875 1.08594C0.921875 1.38281 1.02865 1.63802 1.24219 1.85156C1.45573 2.0651 1.71094 2.17188 2.00781 2.17188ZM2.00781 6.89062H3.27344C3.57552 6.89062 3.83333 6.78646 4.04688 6.57812C4.26042 6.36458 4.36719 6.10677 4.36719 5.80469C4.36719 5.50781 4.26042 5.2526 4.04688 5.03906C3.83333 4.82552 3.57552 4.71875 3.27344 4.71875H2.00781C1.71094 4.71875 1.45573 4.82552 1.24219 5.03906C1.02865 5.2526 0.921875 5.50781 0.921875 5.80469C0.921875 6.10677 1.02865 6.36458 1.24219 6.57812C1.45573 6.78646 1.71094 6.89062 2.00781 6.89062ZM2.00781 11.6094H3.27344C3.57552 11.6094 3.83333 11.5026 4.04688 11.2891C4.26042 11.0807 4.36719 10.8255 4.36719 10.5234C4.36719 10.2266 4.26042 9.97135 4.04688 9.75781C3.83333 9.54427 3.57552 9.4375 3.27344 9.4375H2.00781C1.71094 9.4375 1.45573 9.54427 1.24219 9.75781C1.02865 9.97135 0.921875 10.2266 0.921875 10.5234C0.921875 10.8255 1.02865 11.0807 1.24219 11.2891C1.45573 11.5026 1.71094 11.6094 2.00781 11.6094Z" fill="currentColor"></path></svg>