<?xml version="1.0" encoding="UTF-8"?><svg id="a" xmlns="http://www.w3.org/2000/svg" viewBox="0 0 92 127"><defs><style>.b{fill:#00aeef;}.c{fill:#6d6e71;}.d{fill:#231f20;}</style></defs><path class="b" d="M85.94,126.97H6.06c-3.32,0-6.01-2.7-6.01-6.01V6.38C.05,3.06,2.75,.37,6.06,.37H85.94c3.32,0,6.01,2.7,6.01,6.01V120.95c0,3.32-2.7,6.01-6.01,6.01ZM6.06,1.12C3.16,1.12,.8,3.48,.8,6.38V120.95c0,2.9,2.36,5.26,5.26,5.26H85.94c2.9,0,5.26-2.36,5.26-5.26V6.38c0-2.9-2.36-5.26-5.26-5.26H6.06Z"/><g><g><path class="c" d="M34.88,17.09c.31,.37,.47,.92,.47,1.64v1.47c0,.91-.15,1.72-.44,2.43h-1.22c.27-.77,.4-1.58,.4-2.43v-1.47c0-.42-.05-.72-.16-.89-.11-.17-.3-.26-.56-.26s-.46,.09-.57,.26-.17,.47-.17,.88v1.7c0,.76-.18,1.33-.53,1.71-.36,.38-.88,.57-1.58,.57s-1.21-.19-1.56-.58-.53-.96-.53-1.71v-1.63c0-.75,.17-1.32,.51-1.7,.34-.39,.84-.58,1.49-.58,.4,0,.73,.08,.99,.23,.26,.15,.45,.37,.55,.66,.15-.31,.35-.53,.6-.67,.25-.14,.56-.21,.94-.21,.6,0,1.05,.19,1.37,.56Zm-3.52,1.73c0-.32-.03-.57-.08-.74s-.14-.3-.26-.38-.29-.11-.51-.11-.37,.04-.48,.11-.2,.2-.25,.38c-.05,.18-.08,.42-.08,.74v1.61c0,.32,.03,.57,.08,.74,.05,.18,.13,.3,.25,.38,.11,.08,.27,.11,.48,.11,.22,0,.39-.04,.51-.11,.12-.08,.21-.2,.26-.38s.08-.42,.08-.74v-1.61Z"/><path class="c" d="M40.17,17.11c.36,.39,.53,.96,.53,1.71v1.39c0,.91-.15,1.72-.44,2.43h-1.24c.27-.77,.4-1.58,.4-2.43v-1.38c0-.32-.03-.57-.08-.74s-.13-.3-.25-.38c-.11-.08-.28-.11-.48-.11s-.37,.04-.48,.11-.2,.2-.25,.38-.08,.42-.08,.74v1.37c0,.85,.13,1.66,.4,2.44h-1.24c-.3-.73-.44-1.53-.44-2.42v-1.4c0-.75,.18-1.32,.53-1.71,.35-.39,.87-.58,1.56-.58s1.2,.19,1.55,.58Z"/><path class="c" d="M45.92,20.76c0,1.31-.7,1.97-2.1,1.97s-2.09-.66-2.09-1.97c0-1.15,.53-1.8,1.59-1.95v-.34c0-.13-.04-.24-.11-.32-.07-.09-.19-.2-.36-.35-.11-.09-.19-.17-.25-.23-.05-.06-.1-.14-.13-.25-.04-.1-.05-.24-.05-.41v-.29h1.3v.13c0,.12,.03,.21,.09,.29,.06,.08,.16,.17,.31,.29,.17,.13,.3,.27,.38,.41,.08,.14,.12,.32,.12,.54v.58c.88,.22,1.32,.85,1.32,1.9Zm-1.48,.71c.13-.15,.2-.39,.2-.72s-.07-.57-.2-.72c-.13-.15-.34-.23-.63-.23s-.48,.08-.61,.23c-.13,.15-.19,.39-.19,.72s.07,.57,.2,.72c.13,.15,.34,.23,.62,.23s.49-.08,.62-.23Z"/><path class="c" d="M50.63,17.11c.35,.39,.53,.96,.53,1.71v1.39c0,.91-.15,1.72-.44,2.43h-1.24c.27-.77,.4-1.58,.4-2.43v-1.38c0-.32-.03-.57-.08-.74-.05-.18-.13-.3-.25-.38s-.28-.11-.48-.11-.37,.04-.48,.11-.2,.2-.25,.38c-.05,.18-.08,.42-.08,.74v1.37c0,.85,.13,1.66,.4,2.44h-1.24c-.3-.73-.44-1.53-.44-2.42v-1.4c0-.75,.18-1.32,.53-1.71,.35-.39,.87-.58,1.56-.58s1.2,.19,1.55,.58Z"/><path class="c" d="M52.34,16.62h1.28v4.12c0,.34,.07,.58,.21,.73,.14,.15,.37,.23,.68,.23s.54-.07,.68-.22c.14-.15,.21-.39,.21-.72,0-.14-.02-.27-.06-.39-.04-.12-.11-.26-.19-.43-.1-.2-.17-.38-.22-.52-.05-.15-.07-.32-.07-.52v-.13h1.28c0,.16,.03,.31,.07,.44,.04,.13,.11,.29,.2,.49,.1,.22,.17,.41,.21,.55,.04,.14,.07,.31,.07,.52,0,1.31-.72,1.97-2.17,1.97s-2.17-.66-2.17-1.98v-4.13Z"/><path class="c" d="M61.34,17.11c.35,.39,.53,.96,.53,1.71v1.39c0,.91-.15,1.72-.44,2.43h-1.24c.27-.77,.4-1.58,.4-2.43v-1.38c0-.32-.03-.57-.08-.74-.05-.18-.13-.3-.25-.38s-.28-.11-.48-.11-.37,.04-.48,.11-.2,.2-.25,.38c-.05,.18-.08,.42-.08,.74v1.37c0,.85,.13,1.66,.4,2.44h-1.24c-.3-.73-.44-1.53-.44-2.42v-1.4c0-.75,.18-1.32,.53-1.71,.35-.39,.87-.58,1.56-.58s1.2,.19,1.55,.58Z"/></g><g><path class="b" d="M15.92,18.54c.07,.73,.11,1.11-.48,1.73-.61,.64-2.15,1.84-3.73,2.75-.66,.38-1.56,.85-2.24,1.09-.5,.18-.93,.26-1.14-.11-.14-.24-.07-.45,0-.64,.55-1.49,2.13-4.26,3.16-6.07,.11-.18,.21-.37,.32-.57,1.58-2.73,3.69-6.08,4.1-6.62,.06-.08,.17-.17,.27-.11,.08,.05,.08,.15,.07,.21,0,.01-.03,.11-.04,.15-.68,2.76-.61,5.47-.29,8.17Z"/><path class="b" d="M18.23,19.39c-.67-.3-1.01-.46-1.26-1.29-.25-.85-.52-2.78-.52-4.6,0-.76,.05-1.77,.17-2.49,.09-.53,.24-.93,.66-.93,.27,0,.43,.17,.56,.32,1.01,1.22,2.63,3.97,3.67,5.77,.11,.18,.22,.37,.33,.56,1.58,2.74,3.42,6.23,3.68,6.86,.04,.09,.06,.23-.04,.29-.08,.05-.17,0-.22-.04,0,0-.08-.08-.11-.11-2.05-1.97-4.44-3.26-6.93-4.34Z"/><path class="b" d="M16.34,20.97c.6-.43,.91-.65,1.74-.45,.86,.21,2.67,.94,4.25,1.86,.66,.38,1.51,.93,2.07,1.39,.41,.35,.69,.68,.48,1.04-.14,.24-.36,.29-.56,.32-1.56,.27-4.75,.29-6.83,.3-.21,0-.43,0-.65,0-3.16,0-7.11-.15-7.78-.24-.1-.01-.23-.06-.23-.18,0-.09,.09-.14,.15-.17,.01,0,.11-.03,.15-.04,2.73-.79,5.04-2.21,7.22-3.83Z"/></g><g><path class="c" d="M72.34,17.74v4.83h-1.37v-4.83h-1.54v-1.13h4.46v1.13h-1.54Z"/><path class="c" d="M76.85,16.61c1.24,0,1.86,.53,1.86,1.59,0,.38-.09,.68-.26,.89s-.42,.33-.74,.36c.4,.02,.71,.15,.93,.39,.22,.24,.33,.57,.33,1,0,1.15-.7,1.72-2.09,1.72h-2.17v-5.96h2.14Zm.31,2.36c.1-.04,.17-.11,.21-.21,.04-.1,.06-.25,.06-.44s-.02-.34-.06-.44c-.04-.1-.11-.17-.21-.21-.1-.04-.25-.06-.44-.06h-.68v1.42h.67c.2,0,.35-.02,.45-.06Zm.13,2.5c.12-.04,.2-.12,.25-.23s.07-.27,.07-.48-.02-.37-.07-.48-.13-.19-.26-.23-.3-.07-.53-.07h-.72v1.55h.72c.24,0,.42-.02,.54-.07Z"/><path class="c" d="M80.34,21.9c-.45-.51-.68-1.27-.68-2.29,0-2.05,.91-3.07,2.72-3.07,.46,0,.88,.07,1.26,.2l-.25,1.09c-.26-.14-.56-.2-.92-.2-.39,0-.68,.06-.88,.17-.2,.11-.34,.31-.42,.59-.08,.28-.12,.69-.12,1.23s.04,.94,.12,1.21c.08,.27,.22,.47,.42,.58,.2,.11,.49,.16,.86,.16,.42,0,.78-.08,1.07-.25l.25,1.12c-.4,.16-.85,.24-1.37,.24-.91,0-1.59-.25-2.04-.76Z"/></g><rect class="c" x="65.22" y="15.94" width=".85" height="7.73"/></g><g><path class="d" d="M23.51,86.97c0,1.73-1.01,2.73-2.51,2.73-1.6,0-2.5-1.18-2.5-2.73,0-1.4,.7-2.24,2.08-2.82,1.07-.45,1.25-.71,1.25-1.18,0-.36-.25-.68-.83-.68-.65,0-.92,.35-.92,.74,0,.14,.01,.23,.02,.29l-.92,.24c-.08-.16-.12-.34-.12-.54,0-.91,.9-1.48,1.94-1.48,1.14,0,1.87,.61,1.87,1.47,0,.58-.22,1.05-1.02,1.46,.96,.48,1.66,1.25,1.66,2.51Zm-1.07,0c0-1.12-.43-1.76-1.19-2.24-1.3,.54-1.7,1.16-1.7,2.24,0,1.28,.54,1.93,1.45,1.93,.97,0,1.44-.69,1.44-1.93Z"/><path class="d" d="M28.82,85.44c0,1.29-.98,2.08-2.25,2.08-1.5,0-2.23-.98-2.23-1.98,0-.43,.12-.82,.3-1.16l.84,.23c-.09,.26-.14,.56-.14,.9,0,.72,.45,1.21,1.22,1.21,.84,0,1.2-.57,1.2-1.3,0-1.51-1.79-1.96-1.79-3.75h1c0,1.23,1.84,2,1.84,3.78Z"/><path class="d" d="M35.05,84.58c0,1.84-.93,2.93-2.4,2.93s-2.32-1-2.33-2.8v-3.83c0-1.1,.79-1.67,1.82-1.67,.69,0,1.15,.15,1.6,.15,.21,0,.44-.03,.8-.15l.11,.71c-.34,.15-.63,.2-.9,.2-.65,0-.98-.13-1.56-.13s-.88,.31-.88,.95v1.31c.38-.4,.87-.72,1.54-.72,1.43,0,2.2,1.31,2.2,3.05Zm-1.07,0c0-1.55-.5-2.25-1.3-2.25-.58,0-1.01,.3-1.36,.76v1.49c0,1.45,.43,2.13,1.33,2.13s1.33-.67,1.33-2.13Z"/><path class="d" d="M41.13,87.32c0,1.31-.89,2.38-2.41,2.38-1.61,0-2.34-1-2.34-2.1,0-.48,.13-.84,.32-1.21l.84,.23c-.09,.27-.16,.57-.16,.96,0,.79,.44,1.32,1.33,1.32,1.02,0,1.36-.76,1.36-1.7,0-.88-.41-1.62-1.38-1.62h-.45l.06-.8h.41c.61,0,1.17-.41,1.17-1.25,0-.66-.38-1.19-1.2-1.19s-1.21,.51-1.21,1.14c0,.24,.04,.45,.1,.67l-.9,.16c-.13-.28-.21-.59-.21-.9,0-1.08,.93-1.87,2.22-1.87s2.23,.84,2.23,1.93c0,.93-.6,1.47-1.41,1.67,.82,.14,1.62,.82,1.62,2.2Z"/><path class="d" d="M46.66,85.44c0,1.29-.98,2.08-2.25,2.08-1.5,0-2.23-.98-2.23-1.98,0-.43,.12-.82,.3-1.16l.84,.23c-.09,.26-.14,.56-.14,.9,0,.72,.45,1.21,1.22,1.21,.84,0,1.2-.57,1.2-1.3,0-1.51-1.79-1.96-1.79-3.75h1c0,1.23,1.84,2,1.84,3.78Z"/><path class="d" d="M51,84.51c0-.65,.1-1.21,.3-1.67-.38-.38-.79-.51-1.12-.51-.55,0-1.23,.35-1.23,2.06,0,1.85,1.05,2.64,2.21,3.15,.85,.38,1.77,.75,2.41,1.69l-.72,.48c-.41-.64-1.17-1.23-2.07-1.23-.76,0-1.37,.25-1.84,.5l-.29-.9c.39-.13,.85-.23,1.57-.23-1.18-.56-2.26-1.38-2.26-3.59,0-1.91,1.03-2.71,2.12-2.71,.55,0,1.12,.23,1.59,.71,.39-.46,.94-.71,1.63-.71,1.46,0,2.32,1.17,2.32,2.99s-.84,2.85-2.3,2.85-2.3-1.17-2.3-2.86Zm1.05,0c0,1.36,.47,2.06,1.26,2.06s1.25-.69,1.25-2.04c0-1.49-.48-2.18-1.27-2.18s-1.24,.69-1.24,2.17Z"/><path class="d" d="M61.33,83.67v3.65c0,1.37-.81,2.38-2.23,2.38-1.58,0-2.26-1.07-2.26-2.16,0-.54,.16-1.04,.36-1.43l.85,.23c-.12,.35-.21,.72-.21,1.2,0,.81,.43,1.36,1.25,1.36,.91,0,1.23-.72,1.23-1.7v-3.46c0-.79-.31-1.41-1.16-1.41s-1.17,.57-1.17,1.14c0,.35,.06,.63,.14,.87l-.9,.18c-.15-.31-.26-.7-.26-1.06,0-1.16,.97-1.93,2.19-1.93s2.15,.82,2.15,2.14Z"/><path class="d" d="M67.91,84.51c0,1.79-.92,2.99-2.54,2.99s-2.54-1.17-2.54-2.98c0-1.62,.79-2.79,2.19-2.96,.03-.1,.04-.23,.04-.41,0-.68-.92-.76-.92-1.77l.97-.11c0,.78,.92,.92,.92,1.83,0,.19-.04,.36-.11,.49,1.28,.24,1.99,1.32,1.99,2.93Zm-1.07,0c0-1.48-.52-2.17-1.46-2.17s-1.48,.69-1.48,2.18,.52,2.17,1.47,2.17,1.47-.69,1.47-2.19Z"/><path class="d" d="M73.5,85.44c0,1.29-.98,2.08-2.25,2.08-1.5,0-2.23-.98-2.23-1.98,0-.43,.12-.82,.3-1.16l.84,.23c-.09,.26-.14,.56-.14,.9,0,.72,.45,1.21,1.22,1.21,.84,0,1.2-.57,1.2-1.3,0-1.51-1.79-1.96-1.79-3.75h1c0,1.23,1.84,2,1.84,3.78Z"/></g><g><path class="b" d="M.62,35.25h-.2c-.3,0-.5-.2-.5-.5s.2-.5,.5-.5h.2c.3,0,.5,.2,.5,.5s-.2,.5-.5,.5Z"/><path class="b" d="M7.32,35.25c-.4,0-1,0-1-.5s.6-.5,1-.5c.3,0,.5,.2,.5,.5s-.3,.5-.5,.5Zm-3.6,0c-.4,0-1,0-1-.5s.6-.5,1-.5c.3,0,.5,.2,.5,.5s-.3,.5-.5,.5Z"/><path class="b" d="M86.92,35.25c-.4,0-1,0-1-.5s.6-.5,1-.5c.3,0,.5,.2,.5,.5s-.2,.5-.5,.5Zm-3.3,0c-.4,0-1,0-1-.5s.6-.5,1-.5c.3,0,.5,.2,.5,.5s-.2,.5-.5,.5Zm-3.3,0c-.4,0-1,0-1-.5s.6-.5,1-.5c.3,0,.5,.2,.5,.5s-.2,.5-.5,.5Zm-3.3,0c-.4,0-1,0-1-.5s.6-.5,1-.5c.3,0,.5,.2,.5,.5s-.3,.5-.5,.5Zm-3.4,0c-.4,0-1,0-1-.5s.6-.5,1-.5c.3,0,.5,.2,.5,.5s-.2,.5-.5,.5Zm-3.3,0c-.4,0-1,0-1-.5s.6-.5,1-.5c.3,0,.5,.2,.5,.5s-.2,.5-.5,.5Zm-3.3,0c-.4,0-1,0-1-.5s.6-.5,1-.5c.3,0,.5,.2,.5,.5s-.2,.5-.5,.5Zm-3.3,0c-.4,0-1,0-1-.5s.6-.5,1-.5c.3,0,.5,.2,.5,.5s-.2,.5-.5,.5Zm-3.3,0c-.4,0-1,0-1-.5s.6-.5,1-.5c.3,0,.5,.2,.5,.5s-.2,.5-.5,.5h0Zm-3.4,0c-.4,0-1,0-1-.5s.6-.5,1-.5c.3,0,.5,.2,.5,.5s-.2,.5-.5,.5Zm-3.3,0c-.4,0-1,0-1-.5s.6-.5,1-.5c.3,0,.5,.2,.5,.5s-.2,.5-.5,.5Zm-3.3,0c-.4,0-1,0-1-.5s.6-.5,1-.5c.3,0,.5,.2,.5,.5s-.2,.5-.5,.5Zm-3.3,0c-.4,0-1,0-1-.5s.6-.5,1-.5c.3,0,.5,.2,.5,.5s-.2,.5-.5,.5Zm-3.3,0c-.4,0-1,0-1-.5s.6-.5,1-.5c.3,0,.5,.2,.5,.5s-.3,.5-.5,.5Zm-3.4,0c-.4,0-1,0-1-.5s.6-.5,1-.5c.3,0,.5,.2,.5,.5s-.2,.5-.5,.5h0Zm-3.3,0c-.4,0-1,0-1-.5s.6-.5,1-.5c.3,0,.5,.2,.5,.5s-.2,.5-.5,.5Zm-3.3,0c-.4,0-1,0-1-.5s.6-.5,1-.5c.3,0,.5,.2,.5,.5s-.2,.5-.5,.5Zm-3.3,0c-.4,0-1,0-1-.5s.6-.5,1-.5c.3,0,.5,.2,.5,.5s-.2,.5-.5,.5Zm-3.3,0c-.4,0-1,0-1-.5s.6-.5,1-.5c.3,0,.5,.2,.5,.5s-.3,.5-.5,.5Zm-3.3,0c-.4,0-1,0-1-.5s.6-.5,1-.5c.3,0,.5,.2,.5,.5s-.3,.5-.5,.5Zm-3.4,0c-.4,0-1,0-1-.5s.6-.5,1-.5c.3,0,.5,.2,.5,.5s-.2,.5-.5,.5Zm-3.3,0c-.4,0-1,0-1-.5s.6-.5,1-.5c.3,0,.5,.2,.5,.5s-.2,.5-.5,.5Zm-3.3,0c-.4,0-1,0-1-.5s.6-.5,1-.5c.3,0,.5,.2,.5,.5s-.2,.5-.5,.5Zm-3.3,0c-.4,0-1,0-1-.5s.6-.5,1-.5c.3,0,.5,.2,.5,.5s-.3,.5-.5,.5Z"/><path class="b" d="M90.02,35.25h-.2c-.3,0-.5-.2-.5-.5s.2-.5,.5-.5h.2c.3,0,.5,.2,.5,.5s-.2,.5-.5,.5Z"/></g><g><g><path class="d" d="M11.47,62.69h8.9v3.68H11.47v-3.68Z"/><path class="d" d="M30.35,73h-4.68v-13.72l-3.84,2.35-2.08-3.17,6.33-3.81h4.28v18.34Z"/><path class="d" d="M47.54,63.85c0,6.17-2.52,9.63-7.14,9.63s-7.17-3.46-7.17-9.63,2.54-9.6,7.17-9.6,7.14,3.44,7.14,9.6Zm-9.39,0c0,4.71,.6,6.11,2.25,6.11s2.22-1.27,2.22-6.11-.6-6.09-2.22-6.09-2.25,1.41-2.25,6.09Z"/><path class="d" d="M63.61,63.85c0,6.17-2.52,9.63-7.14,9.63s-7.17-3.46-7.17-9.63,2.54-9.6,7.17-9.6,7.14,3.44,7.14,9.6Zm-9.39,0c0,4.71,.6,6.11,2.25,6.11s2.22-1.27,2.22-6.11-.6-6.09-2.22-6.09-2.25,1.41-2.25,6.09Z"/></g><path class="d" d="M74.08,70.7h5.1l-.36,2.62h-12.47l.18-2.36,2.62-.13c-2.39-1.19-3.91-3.4-3.91-6.96s2.03-6.53,5.21-7.52v-2.16h1.78v1.8c.25-.03,.51-.03,.76-.03,.23,0,.46,0,.69,.03v-1.8h1.78v2.11c3.1,.91,5.08,3.71,5.08,8.4h-3.12c0-3.1-.74-4.85-1.96-5.69v5.69h-1.78v-6.32c-.23-.05-.46-.05-.69-.05-.25,0-.51,.03-.76,.05v6.32h-1.78v-5.66c-1.22,.86-1.9,2.54-1.9,5.15,0,4.09,2.34,6.5,5.54,6.5Z"/></g></svg>